<?xml version="1.0" encoding="UTF-8" standalone="no"?>
<!DOCTYPE svg PUBLIC "-//W3C//DTD SVG 1.1//EN"
 "http://www.w3.org/Graphics/SVG/1.1/DTD/svg11.dtd">
<!-- Generated by graphviz version 2.49.3 (20211027.1534)
 -->
<!-- Title: G Pages: 1 -->
<svg width="585pt" height="106pt"
 viewBox="0.00 0.00 584.80 106.10" xmlns="http://www.w3.org/2000/svg" xmlns:xlink="http://www.w3.org/1999/xlink">
<g id="graph0" class="graph" transform="scale(1 1) rotate(0) translate(4 102.1)">
<title>G</title>
<!-- dbegin -->
<g id="node1" class="node">
<title>dbegin</title>
<text text-anchor="middle" x="20.5" y="-87.7" font-family="sans" font-size="8.00">develop</text>
</g>
<!-- d1 -->
<g id="node2" class="node">
<title>d1</title>
<ellipse fill="black" stroke="black" cx="85" cy="-89.6" rx="3.6" ry="3.6"/>
</g>
<!-- dbegin&#45;&gt;d1 -->
<g id="edge1" class="edge">
<title>dbegin&#45;&gt;d1</title>
<path fill="none" stroke="black" d="M41.28,-89.6C55.87,-89.6 74.33,-89.6 81.23,-89.6"/>
</g>
<!-- d2 -->
<g id="node3" class="node">
<title>d2</title>
<ellipse fill="black" stroke="black" cx="132.6" cy="-89.6" rx="3.6" ry="3.6"/>
</g>
<!-- d1&#45;&gt;d2 -->
<g id="edge2" class="edge">
<title>d1&#45;&gt;d2</title>
<path fill="none" stroke="black" d="M88.72,-89.6C96.85,-89.6 120.92,-89.6 128.96,-89.6"/>
</g>
<!-- r1 -->
<g id="node14" class="node">
<title>r1</title>
<ellipse fill="black" stroke="black" cx="132.6" cy="-37.6" rx="3.6" ry="3.6"/>
</g>
<!-- d1&#45;&gt;r1 -->
<g id="edge18" class="edge">
<title>d1&#45;&gt;r1</title>
<path fill="none" stroke="black" d="M87.96,-87.37C95.46,-78.81 122.3,-48.21 129.7,-39.77"/>
</g>
<!-- d3 -->
<g id="node4" class="node">
<title>d3</title>
<ellipse fill="black" stroke="black" cx="175.8" cy="-89.6" rx="3.6" ry="3.6"/>
</g>
<!-- d2&#45;&gt;d3 -->
<g id="edge3" class="edge">
<title>d2&#45;&gt;d3</title>
<path fill="none" stroke="black" d="M136.3,-89.6C143.75,-89.6 164.51,-89.6 172.03,-89.6"/>
</g>
<!-- d4 -->
<g id="node5" class="node">
<title>d4</title>
<ellipse fill="black" stroke="black" cx="219" cy="-89.6" rx="3.6" ry="3.6"/>
</g>
<!-- d3&#45;&gt;d4 -->
<g id="edge4" class="edge">
<title>d3&#45;&gt;d4</title>
<path fill="none" stroke="black" d="M179.5,-89.6C186.95,-89.6 207.71,-89.6 215.23,-89.6"/>
</g>
<!-- d5 -->
<g id="node6" class="node">
<title>d5</title>
<ellipse fill="black" stroke="black" cx="266.6" cy="-89.6" rx="3.6" ry="3.6"/>
</g>
<!-- d4&#45;&gt;d5 -->
<g id="edge5" class="edge">
<title>d4&#45;&gt;d5</title>
<path fill="none" stroke="black" d="M222.72,-89.6C230.85,-89.6 254.92,-89.6 262.96,-89.6"/>
</g>
<!-- d6 -->
<g id="node7" class="node">
<title>d6</title>
<ellipse fill="black" stroke="black" cx="314.2" cy="-89.6" rx="3.6" ry="3.6"/>
</g>
<!-- d5&#45;&gt;d6 -->
<g id="edge6" class="edge">
<title>d5&#45;&gt;d6</title>
<path fill="none" stroke="black" d="M270.32,-89.6C278.45,-89.6 302.52,-89.6 310.56,-89.6"/>
</g>
<!-- r21 -->
<g id="node21" class="node">
<title>r21</title>
<ellipse fill="black" stroke="black" cx="314.2" cy="-63.6" rx="3.6" ry="3.6"/>
</g>
<!-- d5&#45;&gt;r21 -->
<g id="edge24" class="edge">
<title>d5&#45;&gt;r21</title>
<path fill="none" stroke="black" d="M270.05,-88.2C277.9,-83.73 302.34,-69.79 310.51,-65.13"/>
</g>
<!-- d7 -->
<g id="node8" class="node">
<title>d7</title>
<ellipse fill="black" stroke="black" cx="357.4" cy="-89.6" rx="3.6" ry="3.6"/>
</g>
<!-- d6&#45;&gt;d7 -->
<g id="edge7" class="edge">
<title>d6&#45;&gt;d7</title>
<path fill="none" stroke="black" d="M317.9,-89.6C325.35,-89.6 346.11,-89.6 353.63,-89.6"/>
</g>
<!-- d8 -->
<g id="node9" class="node">
<title>d8</title>
<ellipse fill="black" stroke="black" cx="400.6" cy="-89.6" rx="3.6" ry="3.6"/>
</g>
<!-- d7&#45;&gt;d8 -->
<g id="edge8" class="edge">
<title>d7&#45;&gt;d8</title>
<path fill="none" stroke="black" d="M361.1,-89.6C368.55,-89.6 389.31,-89.6 396.83,-89.6"/>
</g>
<!-- d9 -->
<g id="node10" class="node">
<title>d9</title>
<ellipse fill="black" stroke="black" cx="443.8" cy="-89.6" rx="3.6" ry="3.6"/>
</g>
<!-- d8&#45;&gt;d9 -->
<g id="edge9" class="edge">
<title>d8&#45;&gt;d9</title>
<path fill="none" stroke="black" d="M404.3,-89.6C411.75,-89.6 432.51,-89.6 440.03,-89.6"/>
</g>
<!-- d10 -->
<g id="node11" class="node">
<title>d10</title>
<ellipse fill="black" stroke="black" cx="487" cy="-89.6" rx="3.6" ry="3.6"/>
</g>
<!-- d9&#45;&gt;d10 -->
<g id="edge10" class="edge">
<title>d9&#45;&gt;d10</title>
<path fill="none" stroke="black" d="M447.5,-89.6C454.95,-89.6 475.71,-89.6 483.23,-89.6"/>
</g>
<!-- d11 -->
<g id="node12" class="node">
<title>d11</title>
<ellipse fill="black" stroke="black" cx="530.2" cy="-89.6" rx="3.6" ry="3.6"/>
</g>
<!-- d10&#45;&gt;d11 -->
<g id="edge11" class="edge">
<title>d10&#45;&gt;d11</title>
<path fill="none" stroke="black" d="M490.7,-89.6C498.15,-89.6 518.91,-89.6 526.43,-89.6"/>
</g>
<!-- dend -->
<g id="node29" class="node">
<title>dend</title>
</g>
<!-- d11&#45;&gt;dend -->
<g id="edge28" class="edge">
<title>d11&#45;&gt;dend</title>
<path fill="none" stroke="black" d="M533.9,-89.6C539,-89.6 550.39,-89.6 559.44,-89.6"/>
<polygon fill="black" stroke="black" points="559.54,-93.1 569.54,-89.6 559.54,-86.1 559.54,-93.1"/>
</g>
<!-- rbegin -->
<g id="node13" class="node">
<title>rbegin</title>
<text text-anchor="middle" x="85" y="-35.7" font-family="sans" font-size="8.00">r/7.x</text>
</g>
<!-- rbegin&#45;&gt;r1 -->
<g id="edge12" class="edge">
<title>rbegin&#45;&gt;r1</title>
<path fill="none" stroke="transparent" d="M93.12,-37.6C103.34,-37.6 121.71,-37.6 128.75,-37.6"/>
</g>
<!-- r2 -->
<g id="node15" class="node">
<title>r2</title>
<ellipse fill="black" stroke="black" cx="175.8" cy="-37.6" rx="3.6" ry="3.6"/>
</g>
<!-- r1&#45;&gt;r2 -->
<g id="edge13" class="edge">
<title>r1&#45;&gt;r2</title>
<path fill="none" stroke="black" d="M136.3,-37.6C143.75,-37.6 164.51,-37.6 172.03,-37.6"/>
</g>
<!-- r2&#45;&gt;d4 -->
<g id="edge31" class="edge">
<title>r2&#45;&gt;d4</title>
<path fill="none" stroke="black" stroke-dasharray="5,2" d="M178.79,-40.11C185.73,-48.87 208.87,-78.08 215.94,-86.99"/>
</g>
<!-- r3 -->
<g id="node16" class="node">
<title>r3</title>
<ellipse fill="black" stroke="black" cx="219" cy="-37.6" rx="3.6" ry="3.6"/>
</g>
<!-- r2&#45;&gt;r3 -->
<g id="edge14" class="edge">
<title>r2&#45;&gt;r3</title>
<path fill="none" stroke="black" d="M179.5,-37.6C186.95,-37.6 207.71,-37.6 215.23,-37.6"/>
</g>
<!-- r4 -->
<g id="node17" class="node">
<title>r4</title>
<ellipse fill="black" stroke="black" cx="266.6" cy="-37.6" rx="3.6" ry="3.6"/>
</g>
<!-- r3&#45;&gt;r4 -->
<g id="edge15" class="edge">
<title>r3&#45;&gt;r4</title>
<path fill="none" stroke="black" d="M222.72,-37.6C230.85,-37.6 254.92,-37.6 262.96,-37.6"/>
</g>
<!-- release1 -->
<g id="node26" class="node">
<title>release1</title>
<ellipse fill="gray" stroke="gray" cx="266.6" cy="-12.6" rx="3.6" ry="3.6"/>
<text text-anchor="middle" x="258" y="-2.6" font-family="sans" font-size="8.00">7.0</text>
</g>
<!-- r3&#45;&gt;release1 -->
<g id="edge25" class="edge">
<title>r3&#45;&gt;release1</title>
<path fill="none" stroke="gray" d="M222.45,-36.26C230.3,-31.96 254.74,-18.55 262.91,-14.08"/>
</g>
<!-- r5 -->
<g id="node18" class="node">
<title>r5</title>
<ellipse fill="black" stroke="black" cx="314.2" cy="-37.6" rx="3.6" ry="3.6"/>
</g>
<!-- r4&#45;&gt;r5 -->
<g id="edge16" class="edge">
<title>r4&#45;&gt;r5</title>
<path fill="none" stroke="black" d="M270.32,-37.6C278.45,-37.6 302.52,-37.6 310.56,-37.6"/>
</g>
<!-- r6 -->
<g id="node19" class="node">
<title>r6</title>
<ellipse fill="black" stroke="black" cx="357.4" cy="-37.6" rx="3.6" ry="3.6"/>
</g>
<!-- r5&#45;&gt;r6 -->
<g id="edge17" class="edge">
<title>r5&#45;&gt;r6</title>
<path fill="none" stroke="black" d="M317.9,-37.6C325.35,-37.6 346.11,-37.6 353.63,-37.6"/>
</g>
<!-- r22 -->
<g id="node22" class="node">
<title>r22</title>
<ellipse fill="black" stroke="black" cx="357.4" cy="-63.6" rx="3.6" ry="3.6"/>
</g>
<!-- r5&#45;&gt;r22 -->
<g id="edge32" class="edge">
<title>r5&#45;&gt;r22</title>
<path fill="none" stroke="black" stroke-dasharray="5,2" d="M317.9,-39.31C325.49,-44.1 346.91,-57.61 354.05,-62.12"/>
</g>
<!-- release2 -->
<g id="node27" class="node">
<title>release2</title>
<ellipse fill="gray" stroke="gray" cx="357.4" cy="-12.6" rx="3.6" ry="3.6"/>
<text text-anchor="middle" x="348.8" y="-2.6" font-family="sans" font-size="8.00">7.1</text>
</g>
<!-- r5&#45;&gt;release2 -->
<g id="edge26" class="edge">
<title>r5&#45;&gt;release2</title>
<path fill="none" stroke="gray" d="M317.9,-35.96C325.49,-31.35 346.91,-18.36 354.05,-14.02"/>
</g>
<!-- rend -->
<g id="node30" class="node">
<title>rend</title>
</g>
<!-- r6&#45;&gt;rend -->
<g id="edge29" class="edge">
<title>r6&#45;&gt;rend</title>
<path fill="none" stroke="black" d="M361.1,-37.6C366.22,-37.6 377.64,-37.6 386.71,-37.6"/>
<polygon fill="black" stroke="black" points="386.83,-41.1 396.83,-37.6 386.83,-34.1 386.83,-41.1"/>
</g>
<!-- r2begin -->
<g id="node20" class="node">
<title>r2begin</title>
<text text-anchor="middle" x="266.6" y="-61.7" font-family="sans" font-size="8.00">r/8.x</text>
</g>
<!-- r2begin&#45;&gt;r21 -->
<g id="edge19" class="edge">
<title>r2begin&#45;&gt;r21</title>
<path fill="none" stroke="transparent" d="M274.72,-63.6C284.94,-63.6 303.31,-63.6 310.35,-63.6"/>
</g>
<!-- r21&#45;&gt;r22 -->
<g id="edge20" class="edge">
<title>r21&#45;&gt;r22</title>
<path fill="none" stroke="black" d="M317.9,-63.6C325.35,-63.6 346.11,-63.6 353.63,-63.6"/>
</g>
<!-- r23 -->
<g id="node23" class="node">
<title>r23</title>
<ellipse fill="black" stroke="black" cx="400.6" cy="-63.6" rx="3.6" ry="3.6"/>
</g>
<!-- r22&#45;&gt;r23 -->
<g id="edge21" class="edge">
<title>r22&#45;&gt;r23</title>
<path fill="none" stroke="black" d="M361.1,-63.6C368.55,-63.6 389.31,-63.6 396.83,-63.6"/>
</g>
<!-- r23&#45;&gt;d9 -->
<g id="edge33" class="edge">
<title>r23&#45;&gt;d9</title>
<path fill="none" stroke="black" stroke-dasharray="5,2" d="M404.3,-65.31C411.89,-70.1 433.31,-83.61 440.45,-88.12"/>
</g>
<!-- r24 -->
<g id="node24" class="node">
<title>r24</title>
<ellipse fill="black" stroke="black" cx="443.8" cy="-63.6" rx="3.6" ry="3.6"/>
</g>
<!-- r23&#45;&gt;r24 -->
<g id="edge22" class="edge">
<title>r23&#45;&gt;r24</title>
<path fill="none" stroke="black" d="M404.3,-63.6C411.75,-63.6 432.51,-63.6 440.03,-63.6"/>
</g>
<!-- r25 -->
<g id="node25" class="node">
<title>r25</title>
<ellipse fill="black" stroke="black" cx="487" cy="-63.6" rx="3.6" ry="3.6"/>
</g>
<!-- r24&#45;&gt;r25 -->
<g id="edge23" class="edge">
<title>r24&#45;&gt;r25</title>
<path fill="none" stroke="black" d="M447.5,-63.6C454.95,-63.6 475.71,-63.6 483.23,-63.6"/>
</g>
<!-- release3 -->
<g id="node28" class="node">
<title>release3</title>
<ellipse fill="gray" stroke="gray" cx="487" cy="-38.6" rx="3.6" ry="3.6"/>
<text text-anchor="middle" x="478.4" y="-28.6" font-family="sans" font-size="8.00">8.0</text>
</g>
<!-- r24&#45;&gt;release3 -->
<g id="edge27" class="edge">
<title>r24&#45;&gt;release3</title>
<path fill="none" stroke="gray" d="M447.5,-61.96C455.09,-57.35 476.51,-44.36 483.65,-40.02"/>
</g>
<!-- r25&#45;&gt;d11 -->
<g id="edge34" class="edge">
<title>r25&#45;&gt;d11</title>
<path fill="none" stroke="black" stroke-dasharray="5,2" d="M490.7,-65.31C498.29,-70.1 519.71,-83.61 526.85,-88.12"/>
</g>
<!-- r2end -->
<g id="node31" class="node">
<title>r2end</title>
</g>
<!-- r25&#45;&gt;r2end -->
<g id="edge30" class="edge">
<title>r25&#45;&gt;r2end</title>
<path fill="none" stroke="black" d="M490.7,-63.6C495.82,-63.6 507.24,-63.6 516.31,-63.6"/>
<polygon fill="black" stroke="black" points="516.43,-67.1 526.43,-63.6 516.43,-60.1 516.43,-67.1"/>
</g>
</g>
</svg>

