<?xml version="1.0" encoding="UTF-8" standalone="no"?>
<!-- Generator: Adobe Illustrator 15.0.2, SVG Export Plug-In . SVG Version: 6.00 Build 0)  -->

<svg
   xmlns:dc="http://purl.org/dc/elements/1.1/"
   xmlns:cc="http://creativecommons.org/ns#"
   xmlns:rdf="http://www.w3.org/1999/02/22-rdf-syntax-ns#"
   xmlns:svg="http://www.w3.org/2000/svg"
   xmlns="http://www.w3.org/2000/svg"
   xmlns:sodipodi="http://sodipodi.sourceforge.net/DTD/sodipodi-0.dtd"
   xmlns:inkscape="http://www.inkscape.org/namespaces/inkscape"
   version="1.1"
   id="Ebene_1"
   x="0px"
   y="0px"
   width="400"
   height="79.661499"
   viewBox="0 0 400.00001 79.661499"
   enable-background="new 0 0 717.17 540"
   xml:space="preserve"
   inkscape:version="0.91 r13725"
   sodipodi:docname="opencast_schrift.svg"><metadata
     id="metadata63"><rdf:RDF><cc:Work
         rdf:about=""><dc:format>image/svg+xml</dc:format><dc:type
           rdf:resource="http://purl.org/dc/dcmitype/StillImage" /><dc:title></dc:title></cc:Work></rdf:RDF></metadata><defs
     id="defs61" /><sodipodi:namedview
     pagecolor="#ffffff"
     bordercolor="#666666"
     borderopacity="1"
     objecttolerance="10"
     gridtolerance="10"
     guidetolerance="10"
     inkscape:pageopacity="0"
     inkscape:pageshadow="2"
     inkscape:window-width="1918"
     inkscape:window-height="1141"
     id="namedview59"
     showgrid="false"
     fit-margin-top="0"
     fit-margin-left="0"
     fit-margin-right="0"
     fit-margin-bottom="0"
     inkscape:zoom="2.4722548"
     inkscape:cx="181.70044"
     inkscape:cy="14.320485"
     inkscape:window-x="0"
     inkscape:window-y="0"
     inkscape:window-maximized="0"
     inkscape:current-layer="Ebene_1" /><g
     id="g17"
     transform="matrix(0.70993861,0,0,0.70993861,-57.202594,-168.29379)"><path
       style="fill:#4bb07b"
       d="m 136.273,237.491 55.7,55.678 -55.638,55.658 -0.025,-26.009 29.651,-29.651 -29.651,-29.649 z"
       id="polygon19" /></g><g
     id="g21"
     transform="matrix(0.70993861,0,0,0.70993861,-57.202594,-168.29379)"><path
       style="fill:#24425d"
       d="m 106.587,293.167 29.723,-29.649 -0.037,-26.027 -55.699,55.678 55.761,55.658 -0.025,-26.009 z"
       id="polygon23" /></g><g
     id="g25"
     transform="matrix(0.70993861,0,0,0.70993861,-57.202594,-168.29379)"><path
       style="fill:#4bb07b"
       d="m 180.697,349.156 -0.025,-26.01 29.651,-29.651 -29.651,-29.649 -0.036,-26.027 55.698,55.678 z"
       id="polygon27" /></g><path
     id="path31"
     d="m 151.84451,60.554921 c -5.35578,0 -9.72048,-1.894826 -13.09411,-5.685188 -3.37363,-3.790363 -5.06044,-8.727276 -5.06044,-14.814289 0,-6.426365 1.71308,-11.623825 5.13924,-15.593092 3.42546,-3.969267 7.9641,-5.954255 13.61521,-5.954255 5.33874,0 9.65516,1.899796 12.95141,5.699387 3.29411,3.799591 4.94259,8.807498 4.94259,15.026561 0,6.388737 -1.70882,11.538632 -5.12576,15.451813 -3.41693,3.911762 -7.87393,5.869063 -13.36814,5.869063 z m 0.36562,-34.165086 c -2.9569,0 -5.30466,1.204766 -7.0433,3.615008 -1.73864,2.410241 -2.60832,5.600705 -2.60832,9.569262 0,4.026062 0.86968,7.210137 2.60832,9.553644 1.73864,2.345637 4.01683,3.515616 6.83458,3.515616 2.90364,0 5.2074,-1.138032 6.91125,-3.416225 1.70385,-2.277483 2.55649,-5.438839 2.55649,-9.483359 0,-4.215616 -0.82637,-7.494822 -2.47769,-9.83762 -1.65274,-2.344217 -3.91247,-3.516326 -6.78133,-3.516326 z"
     inkscape:connector-curvature="0"
     style="fill:#24425d" /><path
     id="path33"
     d="m 183.95574,45.838603 0,14.006379 -8.42555,0 0,-40.656764 13.19847,0 c 9.42443,0 14.13701,4.319267 14.13701,12.95709 0,4.083566 -1.35102,7.385491 -4.05588,9.909323 -2.70416,2.523122 -6.31562,3.783972 -10.83792,3.783972 l -4.01613,0 z m 0,-19.619153 0,12.674534 3.31258,0 c 4.48681,0 6.7295,-2.136915 6.7295,-6.407196 0,-4.177989 -2.24198,-6.266628 -6.7295,-6.266628 l -3.31258,0 z"
     inkscape:connector-curvature="0"
     style="fill:#24425d" /><path
     id="path35"
     d="m 229.76098,59.844982 -22.43193,0 0,-40.656764 21.57149,0 0,7.456485 -13.14665,0 0,9.043908 12.23296,0 0,7.428798 -12.23296,0 0,9.299486 14.00638,0 0,7.428087 z"
     inkscape:connector-curvature="0"
     style="fill:#24425d" /><path
     id="path37"
     d="m 268.39584,59.844982 -8.50364,0 -15.41632,-25.544301 c -0.90446,-1.493711 -1.52992,-2.618253 -1.8785,-3.373628 l -0.10365,0 c 0.13844,1.436206 0.20872,3.628496 0.20872,6.576871 l 0,22.341768 -7.95557,0 0,-40.656764 9.07657,0 14.84197,24.75201 c 0.67799,1.114603 1.30416,2.220688 1.8785,3.316123 l 0.10365,0 c -0.13986,-0.943509 -0.20943,-2.805678 -0.20943,-5.584377 l 0,-22.483756 7.95628,0 0,40.656054 z"
     inkscape:connector-curvature="0"
     style="fill:#24425d" /><path
     id="path39"
     d="m 302.74977,58.399547 c -2.729,1.435496 -6.29432,2.154664 -10.69381,2.154664 -5.73985,0 -10.25222,-1.833771 -13.53781,-5.500604 -3.28631,-3.666833 -4.93053,-8.552631 -4.93053,-14.658103 0,-6.500908 1.84726,-11.775042 5.54391,-15.820272 3.69523,-4.04452 8.48945,-6.067135 14.38478,-6.067135 3.65334,0 6.72951,0.501216 9.23417,1.50294 l 0,8.818147 c -2.50395,-1.625759 -5.35578,-2.439349 -8.55476,-2.439349 -3.5142,0 -6.34756,1.200506 -8.50435,3.600809 -2.1568,2.400302 -3.23449,5.651821 -3.23449,9.753137 0,3.93093 1.01735,7.064599 3.05132,9.398167 2.0354,2.334278 4.77434,3.501417 8.21683,3.501417 3.28631,0 6.29574,-0.868965 9.02474,-2.608314 l 0,8.364496 z"
     inkscape:connector-curvature="0"
     style="fill:#4bb07b" /><path
     id="path41"
     d="m 341.1468,59.844982 -9.18022,0 -2.66156,-9.043198 -13.30141,0 -2.636,9.043198 -9.1291,0 13.61662,-40.656764 9.99026,0 13.30141,40.656764 z m -13.77139,-16.07514 -4.01683,-13.665608 c -0.29605,-1.020892 -0.50477,-2.239856 -0.62546,-3.657604 l -0.20872,0 c -0.0873,1.191277 -0.30527,2.372615 -0.65314,3.544014 l -4.06724,13.779198 9.57139,0 z"
     inkscape:connector-curvature="0"
     style="fill:#4bb07b" /><path
     id="path43"
     d="m 343.08067,58.285957 0,-9.072305 c 1.51288,1.37941 3.15497,2.414501 4.92982,3.103851 1.77413,0.690061 3.5646,1.035801 5.37139,1.035801 1.06136,0 1.98712,-0.104361 2.7787,-0.312373 0.79229,-0.206592 1.45254,-0.495537 1.98286,-0.864706 0.53032,-0.369168 0.92576,-0.80294 1.18702,-1.304157 0.25983,-0.500506 0.39188,-1.04361 0.39188,-1.630729 0,-0.793711 -0.20872,-1.50152 -0.62758,-2.125556 -0.41745,-0.624036 -0.98611,-1.199796 -1.70811,-1.73083 -0.7213,-0.528195 -1.57678,-1.03864 -2.56785,-1.530628 -0.99108,-0.489858 -2.06166,-0.991074 -3.20892,-1.50152 -2.9214,-1.323326 -5.1002,-2.939856 -6.53357,-4.849591 -1.4355,-1.908315 -2.15324,-4.214195 -2.15324,-6.916932 0,-2.116327 0.39188,-3.935899 1.17423,-5.458008 0.78307,-1.521398 1.84797,-2.77302 3.19544,-3.756285 1.34604,-0.982555 2.90862,-1.705272 4.68133,-2.168862 1.77414,-0.46288 3.65335,-0.69503 5.6355,-0.69503 1.94594,0 3.67251,0.127789 5.17616,0.383367 1.50365,0.254868 2.89158,0.647464 4.16166,1.176368 l 0,8.476667 c -0.62759,-0.472109 -1.31055,-0.887423 -2.04888,-1.247362 -0.73905,-0.359229 -1.5001,-0.656693 -2.28317,-0.893103 -0.78164,-0.23641 -1.56044,-0.411054 -2.33427,-0.524645 -0.77384,-0.11359 -1.50862,-0.169675 -2.20365,-0.169675 -0.957,0 -1.82526,0.09939 -2.60832,0.297464 -0.78306,0.198073 -1.4433,0.477789 -1.98286,0.836308 -0.53813,0.359939 -0.95486,0.789452 -1.25162,1.290668 -0.29604,0.500507 -0.44229,1.062779 -0.44229,1.686105 0,0.680831 0.164,1.290668 0.49554,1.828801 0.32941,0.539554 0.79939,1.05 1.4078,1.530628 0.607,0.482758 1.34605,0.955578 2.21714,1.418457 0.86897,0.46288 1.85081,0.940669 2.94625,1.431237 1.49655,0.680831 2.83904,1.404258 4.03032,2.169572 1.19057,0.765314 2.21288,1.630019 3.06551,2.593406 0.8498,0.964096 1.50294,2.065211 1.95518,3.303344 0.45223,1.238133 0.6787,2.679309 0.6787,4.324236 0,2.268254 -0.39544,4.172309 -1.18773,5.712876 -0.79158,1.539857 -1.86359,2.787929 -3.22099,3.742087 -1.35527,0.954867 -2.93418,1.639958 -4.73387,2.055982 -1.7997,0.415314 -3.7002,0.624036 -5.69939,0.624036 -2.05243,0 -4.00405,-0.190264 -5.85486,-0.567241 -1.85152,-0.378397 -3.45598,-0.945638 -4.81126,-1.701723 z"
     inkscape:connector-curvature="0"
     style="fill:#4bb07b" /><path
     id="path45"
     d="m 399.99929,26.644703 -10.66967,0 0,33.200279 -8.4504,0 0,-33.200279 -10.61642,0 0,-7.456485 29.7372,0 0,7.456485 z"
     inkscape:connector-curvature="0"
     style="fill:#4bb07b" /></svg>