<?xml version="1.0" encoding="UTF-8" standalone="no"?>
<!DOCTYPE svg PUBLIC "-//W3C//DTD SVG 1.1//EN" "http://www.w3.org/Graphics/SVG/1.1/DTD/svg11.dtd">
<svg width="100%" height="100%" viewBox="0 0 36 34" version="1.1" xmlns="http://www.w3.org/2000/svg" xmlns:xlink="http://www.w3.org/1999/xlink" xml:space="preserve" xmlns:serif="http://www.serif.com/" style="fill-rule:evenodd;clip-rule:evenodd;stroke-linejoin:round;stroke-miterlimit:1.41421;">
    <path d="M36,0L36,34L0,34L0,0L36,0ZM26.968,20C27.442,20 27.828,19.615 27.828,19.14L27.828,17.86C27.828,17.385 27.442,17 26.968,17L9.032,17C8.558,17 8.172,17.385 8.172,17.86L8.172,19.14C8.172,19.615 8.558,20 9.032,20L14,20L14,31L22,31L22,20L26.968,20ZM24.991,16C24.99,15.984 24.552,11.315 23.936,10.039C23.319,8.762 20.25,8.717 20.25,8.717C20.25,8.717 19.543,12.025 19.354,12.654C19.164,13.284 19.125,13.43 19.125,13.43C19.125,13.43 18.646,10.234 18.562,9.91C18.5,9.666 18.088,9.65 18,9.65C17.912,9.65 17.5,9.678 17.437,9.921C17.354,10.246 17.01,13.359 17.01,13.359C17.01,13.359 16.905,13.284 16.716,12.654C16.526,12.025 15.75,8.717 15.75,8.717C15.75,8.717 12.681,8.762 12.064,10.039C11.447,11.317 11.009,16 11.009,16L24.991,16ZM19.125,8.717C19.186,8.978 18.358,9.54 18.358,9.54L17.696,9.524C17.696,9.524 16.814,8.978 16.875,8.717C16.931,8.477 17.686,8.503 18,8.5C18.316,8.503 19.069,8.477 19.125,8.717ZM18,1.133C19.711,1.133 21.1,2.638 21.1,4.491C21.1,6.344 19.711,7.848 18,7.848C16.289,7.848 14.9,6.344 14.9,4.491C14.9,2.638 16.289,1.133 18,1.133Z"/>
</svg>
