<?xml version="1.0" encoding="UTF-8" standalone="no"?>
<!DOCTYPE svg PUBLIC "-//W3C//DTD SVG 1.1//EN" "http://www.w3.org/Graphics/SVG/1.1/DTD/svg11.dtd">
<svg width="100%" height="100%" viewBox="0 0 74 34" version="1.1" xmlns="http://www.w3.org/2000/svg" xmlns:xlink="http://www.w3.org/1999/xlink" xml:space="preserve" xmlns:serif="http://www.serif.com/" style="fill-rule:evenodd;clip-rule:evenodd;stroke-linejoin:round;stroke-miterlimit:1.41421;">
    <path d="m36 34h-36v-34h36zm-16-12 5.3 8.5c0.73 1.2-0.99 2.2-1.7 1.1l-5-8.1-5.2 8.1c-0.73 1.1-2.6 0.059-1.8-1.1l5.4-8.5h-12v-17h-2v-2h30v2h-2v17zm-13-17h22v15h-22zm8.5 5.1-6.3 7.3-0.62-0.52 6.9-7.9 4.5 4.5 6.2-6 0.58 0.57-6.8 6.6zm58.5 23.9h-36.5v-34h36.5zm-10.5-16.9h-18c-0.48 0-0.86 0.38-0.86 0.86v1.3c0 0.48 0.38 0.86 0.86 0.86h5v11h8v-11h5c0.47 0 0.86-0.38 0.86-0.86v-1.3c0-0.48-0.38-0.86-0.86-0.86zm-2-1c-1e-3 -0.016-0.44-4.7-1.1-6-0.62-1.3-3.7-1.3-3.7-1.3s-0.71 3.3-0.9 3.9c-0.19 0.63-0.23 0.78-0.23 0.78s-0.48-3.2-0.56-3.5c-0.062-0.24-0.47-0.26-0.56-0.26s-0.5 0.028-0.56 0.27c-0.083 0.32-0.43 3.4-0.43 3.4s-0.1-0.075-0.29-0.7c-0.19-0.63-0.97-3.9-0.97-3.9s-3.1 0.045-3.7 1.3c-0.62 1.3-1.1 6-1.1 6zm-5.9-7.3c0.061 0.26-0.77 0.82-0.77 0.82l-0.66-0.016s-0.88-0.55-0.82-0.81c0.056-0.24 0.81-0.21 1.1-0.22 0.32 3e-3 1.1-0.023 1.1 0.22zm-1.1-7.6c1.7 0 3.1 1.5 3.1 3.4s-1.4 3.4-3.1 3.4-3.1-1.5-3.1-3.4 1.4-3.4 3.1-3.4z"/>
</svg>
