<?xml version="1.0" encoding="UTF-8" standalone="no"?>
<!DOCTYPE svg PUBLIC "-//W3C//DTD SVG 1.1//EN" "http://www.w3.org/Graphics/SVG/1.1/DTD/svg11.dtd">
<svg width="100%" height="100%" viewBox="0 0 57 36" version="1.1" xmlns="http://www.w3.org/2000/svg" xmlns:xlink="http://www.w3.org/1999/xlink" xml:space="preserve" xmlns:serif="http://www.serif.com/" style="fill-rule:evenodd;clip-rule:evenodd;stroke-linejoin:round;stroke-miterlimit:1.41421;">
    <path d="m22.6 34.6h-19.9v-14.7h19.9zm-9.1-5.2 2.3 3.68c0.316 0.52-0.429 0.954-0.737 0.477l-2.17-3.51-2.25 3.51c-0.316 0.477-1.13 0.0256-0.78-0.477l2.34-3.68h-5.2v-7.37h-0.867v-0.867h13v0.867h-0.867v7.37zm-5.64-7.37h9.54v6.5h-9.54zm3.68 2.21-2.73 3.16-0.269-0.225 2.99-3.42 1.95 1.95 2.69-2.6 0.251 0.247-2.95 2.86z" stroke-width=".434"/>
    <path d="m42.3 18.9h-9.55v2.46h-8.45v-2.46h-9.52v-17.9h27.5zm-8.32-7.71h-10.9c-0.287 0-0.522 0.23-0.522 0.515v0.766c0 0.284 0.235 0.515 0.522 0.515h3.01v6.58h4.85v-6.58h3.01c0.287 0 0.522-0.23 0.522-0.515v-0.766c0-0.284-0.235-0.515-0.522-0.515zm-1.2-0.598c-0.0012-0.0096-0.267-2.8-0.64-3.57-0.375-0.764-2.24-0.791-2.24-0.791s-0.429 1.98-0.543 2.36c-0.116 0.377-0.139 0.464-0.139 0.464s-0.291-1.91-0.342-2.11c-0.0377-0.146-0.288-0.156-0.341-0.156-0.0533 0-0.303 0.0168-0.342 0.162-0.0503 0.194-0.259 2.06-0.259 2.06s-0.0634-0.0449-0.178-0.422c-0.115-0.376-0.586-2.36-0.586-2.36s-1.86 0.0269-2.24 0.791c-0.374 0.765-0.64 3.57-0.64 3.57zm-3.56-4.36c0.0365 0.156-0.466 0.493-0.466 0.493l-0.402-0.00958s-0.535-0.327-0.499-0.483c0.0341-0.144 0.493-0.128 0.683-0.13 0.192 0.0018 0.649-0.0138 0.683 0.13zm-0.683-4.54c1.04 0 1.88 0.901 1.88 2.01s-0.843 2.01-1.88 2.01-1.88-0.9-1.88-2.01 0.843-2.01 1.88-2.01z" stroke-width=".598"/>
    <path d="m54.4 34.6h-19.9v-14.7h19.9v14.7zm-6.03-7.37h-7.88c-0.208 0-0.378 0.167-0.378 0.373v0.555c0 0.206 0.17 0.373 0.378 0.373h2.18v4.77h3.52v-4.77h2.18c0.208 0 0.378-0.167 0.378-0.373v-0.555c0-0.206-0.17-0.373-0.378-0.373zm-0.869-0.434c-8.68e-4 -0.0069-0.193-2.03-0.464-2.58-0.271-0.554-1.62-0.573-1.62-0.573s-0.311 1.43-0.394 1.71c-0.0837 0.273-0.101 0.336-0.101 0.336s-0.211-1.39-0.248-1.53c-0.0273-0.106-0.209-0.113-0.247-0.113-0.0386 0-0.22 0.0121-0.248 0.117-0.0364 0.141-0.188 1.49-0.188 1.49s-0.046-0.0325-0.129-0.306c-0.0832-0.273-0.424-1.71-0.424-1.71s-1.35 0.0195-1.62 0.573c-0.271 0.554-0.464 2.58-0.464 2.58zm-2.58-3.16c0.0264 0.113-0.337 0.357-0.337 0.357l-0.291-0.0069s-0.388-0.237-0.361-0.35c0.0247-0.104 0.357-0.0928 0.495-0.0941 0.139 0.0013 0.47-0.01 0.495 0.0941zm-0.495-3.29c0.752 0 1.36 0.652 1.36 1.46s-0.61 1.46-1.36 1.46-1.36-0.652-1.36-1.46 0.61-1.46 1.36-1.46z" stroke-width=".434"/>
</svg>
