<svg width="19" height="21" viewBox="0 0 19 21" xmlns="http://www.w3.org/2000/svg">
    <style>
        .time-text {
            font: 10px sans-serif;
            text-align: right;
            font-weight: bolder;
        }
    </style>
    <path d="M5.55144 0.849227C5.17205 0.429901 4.50568 0.381339 4.06305 0.740762L0.368609 3.74076C0.13465 3.93074 0 4.20809 0 4.50002C0 4.79194 0.13465 5.06929 0.368609 5.25927L4.06305 8.25927C4.50568 8.6187 5.17205 8.57014 5.55144 8.15081C5.93083 7.73148 5.87957 7.10018 5.43695 6.74076L3.90899 5.50002H9.76389C13.6989 5.50002 16.8889 8.5221 16.8889 12.25C16.8889 14.7284 15.479 16.8948 13.3776 18.0686C12.8852 18.3437 12.6177 18.9029 12.8164 19.4106C13.0236 19.94 13.6546 20.2082 14.1779 19.938C17.0507 18.4545 19 15.5679 19 12.25C19 7.41753 14.8649 3.50002 9.76389 3.50002H3.90899L5.43695 2.25927C5.87957 1.89985 5.93083 1.26855 5.55144 0.849227Z" />
    <text class="time-text" x="0" y="19"></text>
</svg>
