<svg viewBox="0 0 240 180" width="48" height="48" xmlns="http://www.w3.org/2000/svg">
  <defs></defs>
  <path d="M 48.893 92.368 L 66.668 92.368 L 66.668 75.896 L 48.893 75.896 L 48.893 92.368 Z M 48.893 125.311 L 155.538 125.311 L 155.538 108.839 L 48.893 108.839 L 48.893 125.311 Z M 173.312 125.311 L 191.088 125.311 L 191.088 108.839 L 173.312 108.839 L 173.312 125.311 Z M 84.442 92.368 L 191.088 92.368 L 191.088 75.896 L 84.442 75.896 L 84.442 92.368 Z M 19.269 177.472 C 14.529 177.472 10.383 175.824 6.828 172.53 C 3.272 169.236 1.495 165.393 1.495 161 L 1.495 18.245 C 1.495 13.852 3.272 10.009 6.828 6.715 C 10.383 3.42 14.529 1.773 19.269 1.773 L 220.711 1.773 C 225.451 1.773 229.598 3.42 233.154 6.715 C 236.708 10.009 238.485 13.852 238.485 18.245 L 238.485 161 C 238.485 165.393 236.708 169.236 233.154 172.53 C 229.598 175.824 225.451 177.472 220.711 177.472 L 19.269 177.472 Z M 19.269 161 L 220.711 161 L 220.711 18.245 L 19.269 18.245 L 19.269 161 Z M 19.269 161 L 19.269 18.245 L 19.269 161 Z" style=""></path>
</svg>