<svg height="20" viewBox="0 0 20 20" width="20" xmlns="http://www.w3.org/2000/svg">
  <path d="M 6.161 19.203 C 5.877 19.203 5.64 19.106 5.451 18.915 C 5.262 18.723 5.169 18.486 5.169 18.203 L 5.169 14.776 L 1.74 14.776 C 1.457 14.776 1.221 14.679 1.029 14.486 C 0.837 14.295 0.742 14.056 0.742 13.771 C 0.742 13.487 0.837 13.25 1.029 13.062 C 1.221 12.873 1.457 12.779 1.74 12.779 L 6.166 12.779 C 6.451 12.779 6.686 12.874 6.879 13.065 C 7.071 13.256 7.166 13.493 7.166 13.777 L 7.166 18.203 C 7.166 18.486 7.069 18.723 6.876 18.915 C 6.684 19.106 6.446 19.203 6.161 19.203 Z M 1.74 6.988 C 1.457 6.988 1.221 6.891 1.029 6.698 C 0.837 6.506 0.742 6.268 0.742 5.983 C 0.742 5.699 0.837 5.462 1.029 5.273 C 1.221 5.084 1.457 4.991 1.74 4.991 L 5.169 4.991 L 5.169 1.562 C 5.169 1.279 5.265 1.043 5.457 0.851 C 5.65 0.659 5.888 0.564 6.174 0.564 C 6.457 0.564 6.694 0.659 6.883 0.851 C 7.072 1.043 7.166 1.279 7.166 1.562 L 7.166 5.988 C 7.166 6.273 7.071 6.508 6.879 6.701 C 6.686 6.893 6.451 6.988 6.166 6.988 L 1.74 6.988 Z M 13.949 19.203 C 13.665 19.203 13.428 19.106 13.24 18.915 C 13.051 18.723 12.957 18.486 12.957 18.203 L 12.957 13.777 C 12.957 13.493 13.052 13.256 13.243 13.065 C 13.434 12.874 13.671 12.779 13.955 12.779 L 18.381 12.779 C 18.664 12.779 18.901 12.874 19.093 13.067 C 19.284 13.26 19.381 13.499 19.381 13.782 C 19.381 14.068 19.284 14.305 19.093 14.494 C 18.901 14.681 18.664 14.776 18.381 14.776 L 14.954 14.776 L 14.954 18.203 C 14.954 18.486 14.857 18.723 14.664 18.915 C 14.473 19.106 14.234 19.203 13.949 19.203 Z M 13.955 6.988 C 13.671 6.988 13.434 6.893 13.243 6.701 C 13.052 6.508 12.957 6.273 12.957 5.988 L 12.957 1.562 C 12.957 1.279 13.052 1.043 13.245 0.851 C 13.438 0.659 13.677 0.564 13.96 0.564 C 14.246 0.564 14.483 0.659 14.672 0.851 C 14.859 1.043 14.954 1.279 14.954 1.562 L 14.954 4.991 L 18.381 4.991 C 18.664 4.991 18.901 5.087 19.093 5.279 C 19.284 5.472 19.381 5.71 19.381 5.996 C 19.381 6.279 19.284 6.516 19.093 6.705 C 18.901 6.894 18.664 6.988 18.381 6.988 L 13.955 6.988 Z" style=""></path>
</svg>