<svg width="24" height="18" viewBox="0 0 24 18" xmlns="http://www.w3.org/2000/svg">
<path fill-rule="evenodd" clip-rule="evenodd" d="M2.8723 2.00778C2.38074 2.06981 2 2.4911 2 2.99981V14.9998C2 15.5252 2.40582 15.9567 2.92038 15.9967C2.92189 15.9967 2.92584 15.9967 2.93265 15.9962C2.94526 15.9954 2.96387 15.9934 2.99167 15.9893L6.03618 15.4672C6.01236 15.3149 6 15.1588 6 14.9998V2.99981C6 2.91008 6.00394 2.82128 6.01165 2.73356L3.01157 2.03335L2.99632 2.02967C2.9461 2.01711 2.91278 2.01142 2.89094 2.00907C2.88078 2.00798 2.87477 2.0078 2.8723 2.00778ZM8.13044 2.50576C8.13254 2.50216 8.13463 2.49856 8.13669 2.49493C8.28996 2.23331 8.55856 2.04737 8.8723 2.00778C8.87477 2.0078 8.88078 2.00798 8.89094 2.00907C8.91278 2.01142 8.9461 2.01711 8.99632 2.02967L9.01157 2.03335L12.0116 2.73356C12.0039 2.82128 12 2.91008 12 2.99981V14.9998C12 15.1588 12.0124 15.3149 12.0362 15.4672L8.99167 15.9893C8.96387 15.9934 8.94526 15.9954 8.93264 15.9962C8.92583 15.9967 8.92187 15.9967 8.92037 15.9967C8.63967 15.9749 8.39133 15.8366 8.22358 15.63C8.21896 15.6241 8.21429 15.6182 8.20955 15.6124C8.07823 15.4431 8 15.2305 8 14.9998V2.99981C8 2.82025 8.04744 2.65158 8.13044 2.50576ZM7.09242 17.3153L3.32019 17.9622L3.30323 17.9649C3.16947 17.9855 2.98223 18.0071 2.77165 17.9912C1.22097 17.8739 0 16.5799 0 14.9998V2.99981C0 1.46701 1.14866 0.204 2.63265 0.0221785C2.96621 -0.0186903 3.26346 0.0354084 3.4732 0.0873433L6.87575 0.881484C7.33742 0.418699 7.9495 0.105879 8.63265 0.0221785C8.9662 -0.0186893 9.26345 0.0354063 9.47319 0.0873405L12.8757 0.881484C13.3374 0.418699 13.9495 0.105879 14.6326 0.0221785C14.9706 -0.0192252 15.2712 0.0368411 15.4814 0.0893817L21.7276 1.65093C23.0631 1.98481 24 3.18476 24 4.56136V13.4383C24 14.8149 23.0631 16.0148 21.7276 16.3487L15.4814 17.9102C15.2712 17.9628 14.9706 18.0188 14.6326 17.9774C14.0516 17.9062 13.5219 17.6693 13.0925 17.3152L9.32019 17.9622L9.30323 17.9649C9.16947 17.9855 8.98223 18.0071 8.77165 17.9912C8.13605 17.9431 7.55585 17.6974 7.09242 17.3153ZM14.2238 15.6303C14.3819 15.8249 14.6115 15.9589 14.8723 15.9918C14.8748 15.9918 14.8808 15.9916 14.8909 15.9905C14.9128 15.9882 14.9461 15.9825 14.9963 15.97L21.2425 14.4084C21.6877 14.2971 22 13.8971 22 13.4383V4.56136C22 4.10249 21.6877 3.70251 21.2425 3.59122L14.9963 2.02967C14.9461 2.01711 14.9128 2.01142 14.8909 2.00907C14.8808 2.00798 14.8748 2.0078 14.8723 2.00778C14.5586 2.04737 14.29 2.2333 14.1367 2.49491C14.1346 2.49855 14.1325 2.50217 14.1304 2.50578C14.0474 2.6516 14 2.82026 14 2.99981V14.9998C14 15.2303 14.0782 15.4429 14.2094 15.6122C14.2143 15.6182 14.2191 15.6242 14.2238 15.6303Z" />
</svg>
