<svg width="22" height="18" viewBox="0 0 22 18" xmlns="http://www.w3.org/2000/svg">
<path fill-rule="evenodd" clip-rule="evenodd" d="M17.363 1.22296C17.7536 0.832497 18.3867 0.832593 18.7772 1.22318C20.8394 3.28598 21.9979 6.08337 21.9979 9.00018C21.9979 11.917 20.8394 14.7144 18.7772 16.7772C18.3867 17.1678 17.7536 17.1679 17.363 16.7774C16.9724 16.3869 16.9723 15.7538 17.3628 15.3632C19.05 13.6754 19.9979 11.3867 19.9979 9.00018C19.9979 6.6137 19.05 4.32492 17.3628 2.63718C16.9723 2.24659 16.9724 1.61343 17.363 1.22296ZM10.4332 1.09887C10.7797 1.26539 11 1.61577 11 2.00018V16.0002C11 16.3846 10.7797 16.735 10.4332 16.9015C10.0867 17.068 9.67548 17.0212 9.37531 16.781L4.64922 13.0002H1C0.447715 13.0002 0 12.5525 0 12.0002V6.00018C0 5.44789 0.447715 5.00018 1 5.00018H4.64922L9.37531 1.21931C9.67548 0.979171 10.0867 0.932353 10.4332 1.09887ZM9 4.0808L5.62469 6.78104C5.44738 6.9229 5.22707 7.00018 5 7.00018H2V11.0002H5C5.22707 11.0002 5.44738 11.0775 5.62469 11.2193L9 13.9196V4.0808ZM13.833 4.75296C14.2236 4.3625 14.8567 4.36259 15.2472 4.75318C16.372 5.87834 17.0039 7.40419 17.0039 8.99518C17.0039 10.5862 16.372 12.112 15.2472 13.2372C14.8567 13.6278 14.2236 13.6279 13.833 13.2374C13.4424 12.8469 13.4423 12.2138 13.8328 11.8232C14.5827 11.0731 15.0039 10.0558 15.0039 8.99518C15.0039 7.93452 14.5827 6.91729 13.8328 6.16718C13.4423 5.77659 13.4424 5.14343 13.833 4.75296Z" />
</svg>
