<?xml version="1.0" encoding="UTF-8" standalone="no"?>
<!DOCTYPE svg PUBLIC "-//W3C//DTD SVG 1.1//EN" "http://www.w3.org/Graphics/SVG/1.1/DTD/svg11.dtd">
<svg width="100%" height="100%" viewBox="0 0 66 66" version="1.1" xmlns="http://www.w3.org/2000/svg" xmlns:xlink="http://www.w3.org/1999/xlink" xml:space="preserve" xmlns:serif="http://www.serif.com/" style="fill-rule:evenodd;clip-rule:evenodd;stroke-linejoin:round;stroke-miterlimit:2;">
    <g transform="matrix(1,0,0,1,1.5,-3.84252)">
        <path d="M35.5,52.843L41.5,52.843L30.5,64.843L19.5,52.843L25.5,52.843L25.5,27.843L35.5,27.843L35.5,52.843ZM13.285,23.741C15.874,15.594 23.502,9.685 32.5,9.685C39.674,9.685 45.979,13.44 49.549,19.09C56.483,20.701 61.657,26.922 61.657,34.343C61.657,42.951 54.196,49.788 45.601,49.842L41.5,49.843L41.5,44.843L45.567,44.842C51.245,44.806 56.343,40.028 56.343,34.343C56.343,29.141 52.495,24.83 47.492,24.107L46.176,23.917L45.539,22.75C43.021,18.135 38.124,15 32.5,15C25.315,15 19.315,20.115 17.949,26.901L17.484,29.213L15.132,29.025C14.924,29.008 14.713,29 14.5,29C10.172,29 6.657,32.514 6.657,36.843C6.657,41.171 9.672,44.842 14,44.843L18.5,44.843L18.5,49.843L14,49.843C6.738,49.843 1.343,44.104 1.343,36.843C1.343,29.99 6.592,24.354 13.285,23.741Z"/>
    </g>
</svg>

