<svg width="20" height="20" viewBox="0 0 20 20" xmlns="http://www.w3.org/2000/svg">
<path fill-rule="evenodd" clip-rule="evenodd" d="M0.87868 0.87868C1.44129 0.31607 2.20435 0 3 0H6C6.55228 0 7 0.447715 7 1C7 1.55228 6.55228 2 6 2H3C2.73478 2 2.48043 2.10536 2.29289 2.29289C2.10536 2.48043 2 2.73478 2 3V6C2 6.55228 1.55228 7 1 7C0.447715 7 0 6.55228 0 6V3C0 2.20435 0.31607 1.44129 0.87868 0.87868ZM13 1C13 0.447715 13.4477 0 14 0H17C17.7957 0 18.5587 0.31607 19.1213 0.87868C19.6839 1.44129 20 2.20435 20 3V6C20 6.55228 19.5523 7 19 7C18.4477 7 18 6.55228 18 6V3C18 2.73478 17.8946 2.48043 17.7071 2.29289C17.5196 2.10536 17.2652 2 17 2H14C13.4477 2 13 1.55228 13 1ZM1 13C1.55228 13 2 13.4477 2 14V17C2 17.2652 2.10536 17.5196 2.29289 17.7071C2.48043 17.8946 2.73478 18 3 18H6C6.55228 18 7 18.4477 7 19C7 19.5523 6.55228 20 6 20H3C2.20435 20 1.44129 19.6839 0.87868 19.1213C0.31607 18.5587 0 17.7957 0 17V14C0 13.4477 0.447715 13 1 13ZM19 13C19.5523 13 20 13.4477 20 14V17C20 17.7957 19.6839 18.5587 19.1213 19.1213C18.5587 19.6839 17.7957 20 17 20H14C13.4477 20 13 19.5523 13 19C13 18.4477 13.4477 18 14 18H17C17.2652 18 17.5196 17.8946 17.7071 17.7071C17.8946 17.5196 18 17.2652 18 17V14C18 13.4477 18.4477 13 19 13Z" />
</svg>
