<?xml version="1.0" encoding="UTF-8" standalone="no"?>
<!DOCTYPE svg PUBLIC "-//W3C//DTD SVG 1.1//EN" "http://www.w3.org/Graphics/SVG/1.1/DTD/svg11.dtd">
<svg width="100%" height="100%" viewBox="0 0 521 521" version="1.1" xmlns="http://www.w3.org/2000/svg" xmlns:xlink="http://www.w3.org/1999/xlink" xml:space="preserve" xmlns:serif="http://www.serif.com/" style="fill-rule:evenodd;clip-rule:evenodd;stroke-linejoin:round;stroke-miterlimit:1.41421;">
    <g transform="matrix(5.20833,0,0,5.20833,0,0)">
        <g id="info-black" serif:id="info black" transform="matrix(3.63636,0,0,3.63636,-750,-315.455)">
            <path d="M220,86.75C227.594,86.75 233.75,92.906 233.75,100.5C233.75,108.094 227.594,114.25 220,114.25C212.406,114.25 206.25,108.094 206.25,100.5C206.25,92.906 212.406,86.75 220,86.75ZM220,88.5C226.627,88.5 232,93.985 232,100.75C232,107.515 226.627,113 220,113C213.373,113 208,107.515 208,100.75C208,93.985 213.373,88.5 220,88.5ZM220.645,95.382L221.432,95.382L219.247,106.753C219.208,106.941 219.18,107.097 219.166,107.221C219.151,107.345 219.143,107.447 219.143,107.526C219.143,107.913 219.267,108.207 219.515,108.41C219.763,108.614 220.129,108.715 220.615,108.715C220.892,108.715 221.217,108.678 221.588,108.604C221.96,108.529 222.384,108.413 222.859,108.254L222.859,109.206C222.017,109.552 221.237,109.815 220.518,109.993C219.8,110.172 219.148,110.261 218.564,110.261C217.919,110.261 217.434,110.095 217.107,109.763C216.78,109.431 216.616,108.928 216.616,108.254C216.616,108.066 216.634,107.838 216.668,107.571C216.703,107.303 216.75,107.006 216.81,106.679L218.593,97.597L216.141,97.151L216.141,96.348L220.645,95.382ZM221.156,90.5C221.592,90.5 221.973,90.664 222.3,90.991C222.627,91.318 222.791,91.704 222.791,92.15C222.791,92.596 222.63,92.98 222.308,93.302C221.986,93.624 221.602,93.785 221.156,93.785C220.69,93.785 220.298,93.629 219.981,93.317C219.664,93.005 219.506,92.616 219.506,92.15C219.506,91.694 219.667,91.305 219.989,90.983C220.311,90.661 220.7,90.5 221.156,90.5Z"/>
        </g>
    </g>
</svg>
