<?xml version="1.0" encoding="UTF-8" standalone="no"?>
<!DOCTYPE svg PUBLIC "-//W3C//DTD SVG 1.1//EN" "http://www.w3.org/Graphics/SVG/1.1/DTD/svg11.dtd">
<svg width="100%" height="100%" viewBox="0 0 66 66" version="1.1" xmlns="http://www.w3.org/2000/svg" xmlns:xlink="http://www.w3.org/1999/xlink" xml:space="preserve" xmlns:serif="http://www.serif.com/" style="fill-rule:evenodd;clip-rule:evenodd;stroke-linejoin:round;stroke-miterlimit:2;">
    <g id="Capa1">
        <g transform="matrix(1,0,0,1.11111,-1,-3.33333)">
            <rect x="11" y="12" width="10" height="9"/>
        </g>
        <g transform="matrix(3.4,0,0,0.666667,-12.4,4)">
            <rect x="11" y="12" width="10" height="9"/>
        </g>
        <g transform="matrix(3.4,0,0,0.666667,-12.4,20)">
            <rect x="11" y="12" width="10" height="9"/>
        </g>
        <g transform="matrix(3.4,0,0,0.666667,-12.4,36)">
            <rect x="11" y="12" width="10" height="9"/>
        </g>
        <g transform="matrix(1,0,0,1.11111,-1,12.6667)">
            <rect x="11" y="12" width="10" height="9"/>
        </g>
        <g transform="matrix(1,0,0,1.11111,-1,28.6667)">
            <rect x="11" y="12" width="10" height="9"/>
        </g>
    </g>
</svg>
