<svg width="24" height="20" viewBox="0 0 24 20" xmlns="http://www.w3.org/2000/svg">
<path fill-rule="evenodd" clip-rule="evenodd" d="M0 2.5C0 1.39543 0.89543 0.5 2 0.5H15C16.1046 0.5 17 1.39543 17 2.5V6.5H15V3C15 2.72386 14.7761 2.5 14.5 2.5H2.5C2.22386 2.5 2 2.72386 2 3V10C2 10.2761 2.22386 10.5 2.5 10.5H6V12.5H2C0.895431 12.5 0 11.6046 0 10.5V2.5ZM7 9.5C7 8.39543 7.89543 7.5 9 7.5H22C23.1046 7.5 24 8.39543 24 9.5V17.5C24 18.6046 23.1046 19.5 22 19.5H9C7.89543 19.5 7 18.6046 7 17.5V9.5ZM22 10C22 9.72386 21.7761 9.5 21.5 9.5H9.5C9.22386 9.5 9 9.72386 9 10V17C9 17.2761 9.22386 17.5 9.5 17.5H21.5C21.7761 17.5 22 17.2761 22 17V10Z" />
</svg>
