<?xml version="1.0" encoding="UTF-8" standalone="no"?>
<!DOCTYPE svg PUBLIC "-//W3C//DTD SVG 1.1//EN" "http://www.w3.org/Graphics/SVG/1.1/DTD/svg11.dtd">
<svg width="100%" height="100%" viewBox="0 0 22 18" version="1.1" xmlns="http://www.w3.org/2000/svg" xmlns:xlink="http://www.w3.org/1999/xlink" xml:space="preserve" xmlns:serif="http://www.serif.com/" style="fill-rule:evenodd;clip-rule:evenodd;stroke-linejoin:round;stroke-miterlimit:2;">
    <path d="M5.147,4.602L9.375,1.219C9.675,0.979 10.087,0.932 10.433,1.099C10.78,1.265 11,1.616 11,2L11,10.454L14.906,14.361L13.222,16.045L11,13.823L11,16C11,16.385 10.78,16.735 10.433,16.902C10.087,17.068 9.675,17.021 9.375,16.781L4.649,13L1,13C0.448,13 0,12.553 0,12L0,6C0,5.448 0.448,5 1,5L2.177,5L0.817,3.639L2.501,1.955L5.147,4.602ZM4.177,7L2,7L2,11L5,11C5.227,11 5.447,11.078 5.625,11.219L9,13.92L9,11.823L4.177,7ZM6.57,6.025L9,8.454L9,4.081L6.57,6.025Z"/>
</svg>
