<?xml version="1.0" encoding="UTF-8" standalone="no"?>
<!DOCTYPE svg PUBLIC "-//W3C//DTD SVG 1.1//EN" "http://www.w3.org/Graphics/SVG/1.1/DTD/svg11.dtd">
<svg width="100%" height="100%" viewBox="0 0 22 18" version="1.1" xmlns="http://www.w3.org/2000/svg" xmlns:xlink="http://www.w3.org/1999/xlink" xml:space="preserve" xmlns:serif="http://www.serif.com/" style="fill-rule:evenodd;clip-rule:evenodd;stroke-linejoin:round;stroke-miterlimit:2;">
    <path d="M10.433,1.099C10.78,1.265 11,1.616 11,2L11,16C11,16.385 10.78,16.735 10.433,16.902C10.087,17.068 9.675,17.021 9.375,16.781L4.649,13L1,13C0.448,13 0,12.553 0,12L0,6C0,5.448 0.448,5 1,5L4.649,5L9.375,1.219C9.675,0.979 10.087,0.932 10.433,1.099ZM9,4.081L5.625,6.781C5.447,6.923 5.227,7 5,7L2,7L2,11L5,11C5.227,11 5.447,11.078 5.625,11.219L9,13.92L9,4.081ZM13.833,4.753C14.224,4.363 14.857,4.363 15.247,4.753C16.372,5.878 17.004,7.404 17.004,8.995C17.004,10.586 16.372,12.112 15.247,13.237C14.857,13.628 14.224,13.628 13.833,13.237C13.442,12.847 13.442,12.214 13.833,11.823C14.583,11.073 15.004,10.056 15.004,8.995C15.004,7.935 14.583,6.917 13.833,6.167C13.442,5.777 13.442,5.143 13.833,4.753Z" />
</svg>
