<?xml version="1.0" encoding="UTF-8" standalone="no"?>
<!-- Created with Inkscape (http://www.inkscape.org/) -->

<svg
   xmlns:dc="http://purl.org/dc/elements/1.1/"
   xmlns:cc="http://creativecommons.org/ns#"
   xmlns:rdf="http://www.w3.org/1999/02/22-rdf-syntax-ns#"
   xmlns:svg="http://www.w3.org/2000/svg"
   xmlns="http://www.w3.org/2000/svg"
   xmlns:sodipodi="http://sodipodi.sourceforge.net/DTD/sodipodi-0.dtd"
   xmlns:inkscape="http://www.inkscape.org/namespaces/inkscape"
   version="1.0"
   width="900"
   height="600"
   viewBox="0 0 226.801 289.606"
   id="Layer_1"
   xml:space="preserve"
   sodipodi:version="0.32"
   inkscape:version="0.92.1 r15371"
   sodipodi:docname="Civil_Ensign_of_Slovenia.svg"
   inkscape:output_extension="org.inkscape.output.svg.inkscape"><metadata
     id="metadata2274"><rdf:RDF><cc:Work
         rdf:about=""><dc:format>image/svg+xml</dc:format><dc:type
           rdf:resource="http://purl.org/dc/dcmitype/StillImage" /></cc:Work></rdf:RDF></metadata><sodipodi:namedview
     inkscape:window-height="736"
     inkscape:window-width="1280"
     inkscape:pageshadow="2"
     inkscape:pageopacity="0.0"
     guidetolerance="10.0"
     gridtolerance="10.0"
     objecttolerance="10.0"
     borderopacity="1.0"
     bordercolor="#666666"
     pagecolor="#ffffff"
     id="base"
     inkscape:zoom="0.73538789"
     inkscape:cx="395"
     inkscape:cy="441"
     inkscape:window-x="651"
     inkscape:window-y="295"
     inkscape:current-layer="Layer_1"
     showgrid="false"
     inkscape:window-maximized="0"><sodipodi:guide
       position="0,0"
       orientation="0,900"
       id="guide4500"
       inkscape:locked="false" /><sodipodi:guide
       position="226.801,0"
       orientation="-600,0"
       id="guide4502"
       inkscape:locked="false" /><sodipodi:guide
       position="226.801,289.606"
       orientation="0,-900"
       id="guide4504"
       inkscape:locked="false" /><sodipodi:guide
       position="0,289.606"
       orientation="600,0"
       id="guide4506"
       inkscape:locked="false" /></sodipodi:namedview><defs
     id="defs3" /><rect
     width="434.409"
     height="289.60599"
     x="-103.804"
     y="1.2451172e-005"
     style="fill:#ffffff;fill-opacity:1;fill-rule:evenodd;stroke:none;stroke-width:2.20000005;stroke-linecap:round;stroke-linejoin:round;stroke-miterlimit:4;stroke-dasharray:none;stroke-opacity:1"
     id="rect3212" /><rect
     width="434.409"
     height="193.07066"
     x="-103.804"
     y="96.535332"
     style="fill:#005da4;fill-opacity:1;fill-rule:evenodd;stroke:none;stroke-width:3.11126995;stroke-linecap:round;stroke-linejoin:round;stroke-miterlimit:4;stroke-dasharray:none;stroke-opacity:1"
     id="rect4183" /><rect
     width="434.409"
     height="96.535332"
     x="-103.804"
     y="193.07066"
     style="fill:#ed1c24;fill-opacity:1;fill-rule:evenodd;stroke:none;stroke-width:2.20000005;stroke-linecap:round;stroke-linejoin:round;stroke-miterlimit:4;stroke-dasharray:none;stroke-opacity:1"
     id="rect6123" /><path
     d="M -18.170084,55.670342 C -19.062084,56.063675 -19.947417,56.472009 -20.826084,56.895008 L -18.058084,100.69434 C -17.304084,112.635 -12.226085,123.93534 -3.716086,132.445 C 2.103247,138.264 9.227246,142.479 16.968912,144.803 L 16.969579,144.803 C 24.711245,142.47867 31.835577,138.264 37.654577,132.445 C 46.164243,123.93534 51.242576,112.635 51.996242,100.69434 L 54.764575,56.895008 C 53.885575,56.472009 53.000909,56.063675 52.108242,55.670342 L 52.108909,55.670675 L 49.275576,100.507 C 48.566576,111.79267 43.768576,122.47367 35.726244,130.516 C 30.426244,135.81667 23.979578,139.70733 16.969912,141.94767 L 16.968912,141.94767 C 9.958913,139.70733 3.512914,135.81667 -1.787086,130.516 C -9.829752,122.47367 -14.627751,111.79267 -15.336418,100.507 L -18.170084,55.670342 L -18.169418,55.670342"
     style="fill:#ed1c24;fill-opacity:1"
     id="path13" /><path
     d="M 52.108909,55.670675 C 41.141243,50.835009 29.187578,48.267676 16.969246,48.267676 C 4.75058,48.267676 -7.203085,50.835009 -18.170751,55.670675 L -15.336751,100.507 C -14.628085,111.79267 -9.830085,122.47367 -1.787419,130.516 C 3.512914,135.81667 9.958913,139.70733 16.968579,141.94767 L 16.969579,141.94767 C 23.979245,139.70733 30.425911,135.81667 35.725244,130.516 C 43.768243,122.47367 48.566242,111.79267 49.274576,100.507"
     style="fill:#005da4;fill-opacity:1"
     id="path15" /><polyline
     style="fill:#ffdd00;fill-opacity:1"
     id="polyline17"
     points="119.764,62.917 124.434,56.539 116.574,57.394 113.386,50.161 110.197,57.394 102.338,56.539    107.008,62.917 102.338,69.295 110.197,68.44 113.386,75.673 116.574,68.44 124.434,69.295  "
     transform="matrix(0.3333333,0,0,0.3333333,-20.826084,48.267676)" /><polyline
     style="fill:#ffdd00;fill-opacity:1"
     id="polyline19"
     points="90,23.232 94.669,16.854 86.811,17.709 83.622,10.476 80.433,17.709 72.575,16.854 77.244,23.232    72.575,29.61 80.433,28.755 83.622,35.988 86.811,28.755 94.669,29.61  "
     transform="matrix(0.3333333,0,0,0.3333333,-20.826084,48.267676)" /><polyline
     style="fill:#ffdd00;fill-opacity:1"
     id="polyline21"
     points="149.527,23.232 154.195,16.854 146.338,17.709 143.148,10.476 139.959,17.709 132.102,16.854    136.771,23.232 132.102,29.61 139.959,28.755 143.148,35.988 146.338,28.755 154.195,29.61  "
     transform="matrix(0.3333333,0,0,0.3333333,-20.826084,48.267676)" /><path
     d="M 45.315909,107.03567 L 31.142244,88.137672 L 25.472911,95.697005 L 16.968912,78.689006 L 8.464913,95.697005 L 2.79558,88.137672 L -11.377752,107.03567 C -11.377752,109.54167 -10.382085,111.94467 -8.610085,113.71667 C -6.838085,115.488 -4.435086,116.48434 -1.928753,116.48434 C -0.255419,116.48434 1.372247,116.04034 2.796247,115.218 C 2.80558,115.212 2.784914,115.22467 2.793914,115.21934 C 3.50358,114.80934 4.269247,114.49 5.074247,114.27467 C 7.494913,113.62634 10.073913,113.96534 12.244246,115.218 C 13.693246,116.05467 15.324912,116.48434 16.969579,116.48434 C 16.976579,116.48434 16.960912,116.48434 16.967912,116.48434 C 18.612912,116.48434 20.244245,116.05467 21.693578,115.218 C 23.863578,113.96534 26.442911,113.62567 28.863578,114.27467 C 29.668244,114.49 30.433911,114.80934 31.143577,115.21934 C 31.153244,115.22467 31.132577,115.21234 31.141577,115.218 C 32.565911,116.04034 34.19291,116.48434 35.866244,116.48434 C 38.37291,116.48434 40.77591,115.48834 42.54791,113.71667 C 44.319909,111.94467 45.315576,109.54167 45.315576,107.03567"
     style="fill:#ffffff"
     id="path23" /><path
     d="M -8.020085,117.296 C -7.369752,118.58834 -6.654752,119.84934 -5.877752,121.074 C -5.877752,121.074 -5.878085,121.07467 -5.877752,121.07534 C -3.883086,121.99267 -1.621419,122.19067 0.516914,121.61767 C 1.322247,121.40234 2.08758,121.08267 2.797247,120.673 C 2.80658,120.66767 2.785914,120.67967 2.795247,120.67434 C 4.219247,119.85134 5.846913,119.408 7.520246,119.408 C 7.52358,119.408 7.515913,119.408 7.519246,119.408 C 9.163913,119.40734 10.79558,119.837 12.244579,120.67434 C 14.414912,121.927 16.993912,122.266 19.414912,121.61767 C 20.219579,121.40234 20.985245,121.08267 21.694912,120.673 C 21.704578,120.66767 21.683912,120.67967 21.692912,120.67434 C 23.116578,119.85134 24.744245,119.408 26.418245,119.408 C 26.421578,119.408 26.413578,119.408 26.416911,119.408 C 28.061578,119.40734 29.693578,119.837 31.142244,120.67434 C 33.312911,121.927 35.891577,122.266 38.312243,121.61767 C 38.83191,121.479 39.334243,121.296 39.816243,121.07467 L 39.816243,121.07467 C 40.593576,119.84934 41.308577,118.58834 41.95891,117.29667 C 41.95891,117.296 41.95891,117.29667 41.95891,117.29667 C 41.48691,117.47634 41.029243,117.69367 40.590576,117.947 C 40.581576,117.95234 40.602243,117.94034 40.593243,117.94567 C 39.883577,118.35534 39.11791,118.67434 38.312577,118.89034 C 35.89191,119.53867 33.313244,119.19967 31.142577,117.94634 C 29.693911,117.10967 28.061911,116.68067 26.417245,116.68067 C 26.413911,116.68067 26.421911,116.68067 26.418578,116.68067 C 24.744911,116.68067 23.117245,117.12467 21.693245,117.947 C 21.684245,117.95234 21.704912,117.94034 21.695245,117.94567 C 20.985578,118.35567 20.219912,118.675 19.415245,118.89034 C 16.994246,119.53934 14.415246,119.20034 12.244913,117.947 C 10.795913,117.11034 9.164246,116.68067 7.51958,116.68067 C 7.515913,116.68067 7.523913,116.68067 7.52058,116.68067 C 5.847247,116.68067 4.21958,117.12467 2.79558,117.94767 C 2.786247,117.953 2.806914,117.941 2.79758,117.94634 C 2.087914,118.356 1.32258,118.675 0.517247,118.891 C -1.903419,119.53934 -4.482419,119.20034 -6.652752,117.947 C -7.093085,117.693 -7.550419,117.47634 -8.019752,117.298 C -8.020085,117.298 -8.019752,117.29734 -8.019752,117.298"
     style="fill:#ffffff"
     id="path25" /><path
     d="M 37.368577,124.54734 C 36.267577,125.958 35.075577,127.30833 33.796244,128.587 C 29.016244,133.367 23.246912,136.92933 16.968912,139.07533 L 16.968579,139.07533 C 10.69058,136.92933 4.920913,133.36767 0.140914,128.587 C -1.138086,127.30833 -2.330086,125.958 -3.431086,124.54734 C -3.431086,124.54734 -3.431419,124.54734 -3.431086,124.54734 C -2.128086,124.757 -0.782753,124.69334 0.516581,124.34567 C 1.321914,124.12967 2.087247,123.81067 2.796914,123.401 C 2.806247,123.39567 2.78558,123.40767 2.794914,123.40234 C 4.218913,122.57934 5.84658,122.136 7.519913,122.136 C 7.523246,122.136 7.51558,122.136 7.518913,122.136 C 9.16358,122.13534 10.795246,122.565 12.244246,123.40167 C 14.414579,124.655 16.993579,124.994 19.414245,124.34567 C 20.219579,124.12967 20.985245,123.81067 21.694912,123.401 C 21.703912,123.39567 21.683245,123.40767 21.692912,123.40234 C 23.116578,122.57934 24.744245,122.136 26.417578,122.136 C 26.420911,122.136 26.413578,122.136 26.416911,122.136 C 28.061578,122.13534 29.692911,122.565 31.142244,123.40167 C 33.032244,124.49334 35.233244,124.89134 37.36891,124.547 C 37.369577,124.547 37.36891,124.547 37.368244,124.54767"
     style="fill:#ffffff"
     id="path27" /></svg>