<?xml version="1.0" encoding="UTF-8" standalone="no"?>
<!-- Generated by graphviz version 2.49.3 (20211027.1534)
 -->

<!-- Title: G Pages: 1 -->

<svg
   width="492.62506pt"
   height="76.953217pt"
   viewBox="0 0 985.25009 153.90643"
   version="1.1"
   id="svg224"
   sodipodi:docname="git-branching-model-simple.svg"
   inkscape:version="1.1.2 (0a00cf5339, 2022-02-04)"
   xmlns:inkscape="http://www.inkscape.org/namespaces/inkscape"
   xmlns:sodipodi="http://sodipodi.sourceforge.net/DTD/sodipodi-0.dtd"
   xmlns="http://www.w3.org/2000/svg"
   xmlns:svg="http://www.w3.org/2000/svg">
  <defs
     id="defs228" />
  <sodipodi:namedview
     id="namedview226"
     pagecolor="#ffffff"
     bordercolor="#666666"
     borderopacity="1.0"
     inkscape:pageshadow="2"
     inkscape:pageopacity="0.0"
     inkscape:pagecheckerboard="0"
     inkscape:document-units="pt"
     showgrid="false"
     inkscape:zoom="0.98494898"
     inkscape:cx="334.02745"
     inkscape:cy="150.76923"
     inkscape:window-width="1920"
     inkscape:window-height="1049"
     inkscape:window-x="0"
     inkscape:window-y="0"
     inkscape:window-maximized="1"
     inkscape:current-layer="svg224"
     fit-margin-top="5"
     fit-margin-left="5"
     fit-margin-right="5"
     fit-margin-bottom="5" />
  <g
     id="node1"
     class="node"
     transform="matrix(2.0500688,0,0,2.0500688,-0.2823762,149.00438)">
    <title
       id="title4">dbegin</title>
    <text
       text-anchor="middle"
       x="20.5"
       y="-61.700001"
       font-family="sans"
       font-size="8px"
       id="text6">develop</text>
  </g>
  <g
     id="node2"
     class="node"
     transform="matrix(2.0500688,0,0,2.0500688,-0.2823762,149.00438)">
    <title
       id="title9">d1</title>
    <circle
       fill="#000000"
       stroke="#000000"
       cx="85"
       cy="-63.599998"
       id="ellipse11"
       r="3.5999999" />
  </g>
  <g
     id="edge1"
     class="edge"
     transform="matrix(2.0500688,0,0,2.0500688,-0.2823762,149.00438)">
    <title
       id="title14">dbegin-&gt;d1</title>
    <path
       fill="none"
       stroke="#000000"
       d="m 41.28,-63.6 c 14.59,0 33.05,0 39.95,0"
       id="path16" />
  </g>
  <g
     id="node3"
     class="node"
     transform="matrix(2.0500688,0,0,2.0500688,-0.2823762,149.00438)">
    <title
       id="title19">d2</title>
    <circle
       fill="#000000"
       stroke="#000000"
       cx="132.60001"
       cy="-63.599998"
       id="ellipse21"
       r="3.5999999" />
  </g>
  <g
     id="edge2"
     class="edge"
     transform="matrix(2.0500688,0,0,2.0500688,-0.2823762,149.00438)">
    <title
       id="title24">d1-&gt;d2</title>
    <path
       fill="none"
       stroke="#000000"
       d="m 88.72,-63.6 c 8.13,0 32.2,0 40.24,0"
       id="path26" />
  </g>
  <g
     id="node12"
     class="node"
     transform="matrix(2.0500688,0,0,2.0500688,-0.2823762,149.00438)">
    <title
       id="title29">r1</title>
    <circle
       fill="#000000"
       stroke="#000000"
       cx="132.60001"
       cy="-37.599998"
       id="ellipse31"
       r="3.5999999" />
  </g>
  <g
     id="edge16"
     class="edge"
     transform="matrix(2.0500688,0,0,2.0500688,-0.2823762,149.00438)">
    <title
       id="title34">d1-&gt;r1</title>
    <path
       fill="none"
       stroke="#000000"
       d="m 88.45,-62.2 c 7.85,4.47 32.29,18.41 40.46,23.07"
       id="path36" />
  </g>
  <g
     id="node4"
     class="node"
     transform="matrix(2.0500688,0,0,2.0500688,-0.2823762,149.00438)">
    <title
       id="title39">d3</title>
    <circle
       fill="#000000"
       stroke="#000000"
       cx="175.8"
       cy="-63.599998"
       id="ellipse41"
       r="3.5999999" />
  </g>
  <g
     id="edge3"
     class="edge"
     transform="matrix(2.0500688,0,0,2.0500688,-0.2823762,149.00438)">
    <title
       id="title44">d2-&gt;d3</title>
    <path
       fill="none"
       stroke="#000000"
       d="m 136.3,-63.6 c 7.45,0 28.21,0 35.73,0"
       id="path46" />
  </g>
  <g
     id="node5"
     class="node"
     transform="matrix(2.0500688,0,0,2.0500688,-0.2823762,149.00438)">
    <title
       id="title49">d4</title>
    <circle
       fill="#000000"
       stroke="#000000"
       cx="219"
       cy="-63.599998"
       id="ellipse51"
       r="3.5999999" />
  </g>
  <g
     id="edge4"
     class="edge"
     transform="matrix(2.0500688,0,0,2.0500688,-0.2823762,149.00438)">
    <title
       id="title54">d3-&gt;d4</title>
    <path
       fill="none"
       stroke="#000000"
       d="m 179.5,-63.6 c 7.45,0 28.21,0 35.73,0"
       id="path56" />
  </g>
  <g
     id="node6"
     class="node"
     transform="matrix(2.0500688,0,0,2.0500688,-0.2823762,149.00438)">
    <title
       id="title59">d5</title>
    <circle
       fill="#000000"
       stroke="#000000"
       cx="262.20001"
       cy="-63.599998"
       id="ellipse61"
       r="3.5999999" />
  </g>
  <g
     id="edge5"
     class="edge"
     transform="matrix(2.0500688,0,0,2.0500688,-0.2823762,149.00438)">
    <title
       id="title64">d4-&gt;d5</title>
    <path
       fill="none"
       stroke="#000000"
       d="m 222.7,-63.6 c 7.45,0 28.21,0 35.73,0"
       id="path66" />
  </g>
  <g
     id="node7"
     class="node"
     transform="matrix(2.0500688,0,0,2.0500688,-0.2823762,149.00438)">
    <title
       id="title69">d6</title>
    <circle
       fill="#000000"
       stroke="#000000"
       cx="305.39999"
       cy="-63.599998"
       id="ellipse71"
       r="3.5999999" />
  </g>
  <g
     id="edge6"
     class="edge"
     transform="matrix(2.0500688,0,0,2.0500688,-0.2823762,149.00438)">
    <title
       id="title74">d5-&gt;d6</title>
    <path
       fill="none"
       stroke="#000000"
       d="m 265.9,-63.6 c 7.45,0 28.21,0 35.73,0"
       id="path76" />
  </g>
  <g
     id="node8"
     class="node"
     transform="matrix(2.0500688,0,0,2.0500688,-0.2823762,149.00438)">
    <title
       id="title79">d7</title>
    <circle
       fill="#000000"
       stroke="#000000"
       cx="348.60001"
       cy="-63.599998"
       id="ellipse81"
       r="3.5999999" />
  </g>
  <g
     id="edge7"
     class="edge"
     transform="matrix(2.0500688,0,0,2.0500688,-0.2823762,149.00438)">
    <title
       id="title84">d6-&gt;d7</title>
    <path
       fill="none"
       stroke="#000000"
       d="m 309.1,-63.6 c 7.45,0 28.21,0 35.73,0"
       id="path86" />
  </g>
  <g
     id="node9"
     class="node"
     transform="matrix(2.0500688,0,0,2.0500688,-0.2823762,149.00438)">
    <title
       id="title89">d8</title>
    <circle
       fill="#000000"
       stroke="#000000"
       cx="391.79999"
       cy="-63.599998"
       id="ellipse91"
       r="3.5999999" />
  </g>
  <g
     id="edge8"
     class="edge"
     transform="matrix(2.0500688,0,0,2.0500688,-0.2823762,149.00438)">
    <title
       id="title94">d7-&gt;d8</title>
    <path
       fill="none"
       stroke="#000000"
       d="m 352.3,-63.6 c 7.45,0 28.21,0 35.73,0"
       id="path96" />
  </g>
  <g
     id="node10"
     class="node"
     transform="matrix(2.0500688,0,0,2.0500688,-0.2823762,149.00438)">
    <title
       id="title99">d9</title>
    <circle
       fill="#000000"
       stroke="#000000"
       cx="435"
       cy="-63.599998"
       id="ellipse101"
       r="3.5999999" />
  </g>
  <g
     id="edge9"
     class="edge"
     transform="matrix(2.0500688,0,0,2.0500688,-0.2823762,149.00438)">
    <title
       id="title104">d8-&gt;d9</title>
    <path
       fill="none"
       stroke="#000000"
       d="m 395.5,-63.6 c 7.45,0 28.21,0 35.73,0"
       id="path106" />
  </g>
  <g
     id="node20"
     class="node"
     transform="matrix(2.0500688,0,0,2.0500688,-0.2823762,149.00438)">
    <title
       id="title109">dend</title>
  </g>
  <g
     id="edge19"
     class="edge"
     transform="matrix(2.0500688,0,0,2.0500688,-0.2823762,149.00438)">
    <title
       id="title112">d9-&gt;dend</title>
    <path
       fill="none"
       stroke="#000000"
       d="m 438.7,-63.6 c 5.1,0 16.49,0 25.54,0"
       id="path114" />
    <polygon
       fill="#000000"
       stroke="#000000"
       points="474.34,-63.6 464.34,-60.1 464.34,-67.1 "
       id="polygon116" />
  </g>
  <g
     id="node11"
     class="node"
     transform="matrix(2.0500688,0,0,2.0500688,-0.2823762,149.00438)">
    <title
       id="title119">rbegin</title>
    <text
       text-anchor="middle"
       x="85"
       y="-35.700001"
       font-family="sans"
       font-size="8px"
       id="text121">r/7.x</text>
  </g>
  <g
     id="edge10"
     class="edge"
     transform="matrix(2.0500688,0,0,2.0500688,-0.2823762,149.00438)">
    <title
       id="title124">rbegin-&gt;r1</title>
    <path
       fill="none"
       stroke="transparent"
       d="m 93.12,-37.6 c 10.22,0 28.59,0 35.63,0"
       id="path126" />
  </g>
  <g
     id="node13"
     class="node"
     transform="matrix(2.0500688,0,0,2.0500688,-0.2823762,149.00438)">
    <title
       id="title129">r2</title>
    <circle
       fill="#000000"
       stroke="#000000"
       cx="175.8"
       cy="-37.599998"
       id="ellipse131"
       r="3.5999999" />
  </g>
  <g
     id="edge11"
     class="edge"
     transform="matrix(2.0500688,0,0,2.0500688,-0.2823762,149.00438)">
    <title
       id="title134">r1-&gt;r2</title>
    <path
       fill="none"
       stroke="#000000"
       d="m 136.3,-37.6 c 7.45,0 28.21,0 35.73,0"
       id="path136" />
  </g>
  <g
     id="edge21"
     class="edge"
     transform="matrix(2.0500688,0,0,2.0500688,-0.2823762,149.00438)">
    <title
       id="title139">r2-&gt;d4</title>
    <path
       fill="none"
       stroke="#000000"
       stroke-dasharray="5, 2"
       d="m 179.5,-39.31 c 7.59,-4.79 29.01,-18.3 36.15,-22.81"
       id="path141" />
  </g>
  <g
     id="node14"
     class="node"
     transform="matrix(2.0500688,0,0,2.0500688,-0.2823762,149.00438)">
    <title
       id="title144">r3</title>
    <circle
       fill="#000000"
       stroke="#000000"
       cx="219"
       cy="-37.599998"
       id="ellipse146"
       r="3.5999999" />
  </g>
  <g
     id="edge12"
     class="edge"
     transform="matrix(2.0500688,0,0,2.0500688,-0.2823762,149.00438)">
    <title
       id="title149">r2-&gt;r3</title>
    <path
       fill="none"
       stroke="#000000"
       d="m 179.5,-37.6 c 7.45,0 28.21,0 35.73,0"
       id="path151" />
  </g>
  <g
     id="node15"
     class="node"
     transform="matrix(2.0500688,0,0,2.0500688,-0.2823762,149.00438)">
    <title
       id="title154">r4</title>
    <circle
       fill="#000000"
       stroke="#000000"
       cx="262.20001"
       cy="-37.599998"
       id="ellipse156"
       r="3.5999999" />
  </g>
  <g
     id="edge13"
     class="edge"
     transform="matrix(2.0500688,0,0,2.0500688,-0.2823762,149.00438)">
    <title
       id="title159">r3-&gt;r4</title>
    <path
       fill="none"
       stroke="#000000"
       d="m 222.7,-37.6 c 7.45,0 28.21,0 35.73,0"
       id="path161" />
  </g>
  <g
     id="node18"
     class="node"
     transform="matrix(2.0500688,0,0,2.0500688,-0.2823762,149.00438)">
    <title
       id="title164">release1</title>
    <circle
       fill="#808080"
       stroke="#808080"
       cx="262.20001"
       cy="-12.6"
       id="ellipse166"
       r="3.5999999" />
    <text
       text-anchor="middle"
       x="253.60001"
       y="-2.5999999"
       font-family="sans"
       font-size="8px"
       id="text168">7.0</text>
  </g>
  <g
     id="edge17"
     class="edge"
     transform="matrix(2.0500688,0,0,2.0500688,-0.2823762,149.00438)">
    <title
       id="title171">r3-&gt;release1</title>
    <path
       fill="none"
       stroke="#808080"
       d="m 222.7,-35.96 c 7.59,4.61 29.01,17.6 36.15,21.94"
       id="path173" />
  </g>
  <g
     id="node16"
     class="node"
     transform="matrix(2.0500688,0,0,2.0500688,-0.2823762,149.00438)">
    <title
       id="title176">r5</title>
    <circle
       fill="#000000"
       stroke="#000000"
       cx="305.39999"
       cy="-37.599998"
       id="ellipse178"
       r="3.5999999" />
  </g>
  <g
     id="edge14"
     class="edge"
     transform="matrix(2.0500688,0,0,2.0500688,-0.2823762,149.00438)">
    <title
       id="title181">r4-&gt;r5</title>
    <path
       fill="none"
       stroke="#000000"
       d="m 265.9,-37.6 c 7.45,0 28.21,0 35.73,0"
       id="path183" />
  </g>
  <g
     id="edge22"
     class="edge"
     transform="matrix(2.0500688,0,0,2.0500688,-0.2823762,149.00438)">
    <title
       id="title186">r5-&gt;d7</title>
    <path
       fill="none"
       stroke="#000000"
       stroke-dasharray="5, 2"
       d="m 309.1,-39.31 c 7.59,-4.79 29.01,-18.3 36.15,-22.81"
       id="path188" />
  </g>
  <g
     id="node17"
     class="node"
     transform="matrix(2.0500688,0,0,2.0500688,-0.2823762,149.00438)">
    <title
       id="title191">r6</title>
    <circle
       fill="#000000"
       stroke="#000000"
       cx="348.60001"
       cy="-37.599998"
       id="ellipse193"
       r="3.5999999" />
  </g>
  <g
     id="edge15"
     class="edge"
     transform="matrix(2.0500688,0,0,2.0500688,-0.2823762,149.00438)">
    <title
       id="title196">r5-&gt;r6</title>
    <path
       fill="none"
       stroke="#000000"
       d="m 309.1,-37.6 c 7.45,0 28.21,0 35.73,0"
       id="path198" />
  </g>
  <g
     id="node19"
     class="node"
     transform="matrix(2.0500688,0,0,2.0500688,-0.2823762,149.00438)">
    <title
       id="title201">release2</title>
    <circle
       fill="#808080"
       stroke="#808080"
       cx="348.60001"
       cy="-12.6"
       id="ellipse203"
       r="3.5999999" />
    <text
       text-anchor="middle"
       x="340"
       y="-2.5999999"
       font-family="sans"
       font-size="8px"
       id="text205">7.1</text>
  </g>
  <g
     id="edge18"
     class="edge"
     transform="matrix(2.0500688,0,0,2.0500688,-0.2823762,149.00438)">
    <title
       id="title208">r5-&gt;release2</title>
    <path
       fill="none"
       stroke="#808080"
       d="m 309.1,-35.96 c 7.59,4.61 29.01,17.6 36.15,21.94"
       id="path210" />
  </g>
  <g
     id="node21"
     class="node"
     transform="matrix(2.0500688,0,0,2.0500688,-0.2823762,149.00438)">
    <title
       id="title213">rend</title>
  </g>
  <g
     id="edge20"
     class="edge"
     transform="matrix(2.0500688,0,0,2.0500688,-0.2823762,149.00438)">
    <title
       id="title216">r6-&gt;rend</title>
    <path
       fill="none"
       stroke="#000000"
       d="m 352.3,-37.6 c 5.12,0 16.54,0 25.61,0"
       id="path218" />
    <polygon
       fill="#000000"
       stroke="#000000"
       points="388.03,-37.6 378.03,-34.1 378.03,-41.1 "
       id="polygon220" />
  </g>
</svg>
