<svg xmlns="http://www.w3.org/2000/svg" xmlns:xlink="http://www.w3.org/1999/xlink" width="547.771" height="410.595" viewBox="0 0 547.771 410.595"><defs><path id="a" d="M0 0h547.77v410.595H0z"/></defs><clipPath id="b"><use xlink:href="#a" overflow="visible"/></clipPath><path clip-path="url(#b)" fill="#CD6799" d="M387.313 310.275c-1.738-1.236-1.45-5.234 4.267-17.687 2.244-4.89 7.364-13.12 16.266-20.986 1.03 3.235 1.66 6.337 1.642 9.226-.116 19.266-13.863 26.46-22.175 29.447zm-73.168 16.68c-2.33 1.22-4.466 1.984-5.46 1.394-.728-.436.962-2.04.962-2.04s11.88-12.78 16.56-18.6c2.723-3.385 5.878-7.402 9.317-11.896.028.45.043.895.043 1.334-.035 15.313-14.826 25.65-21.422 29.807zm-94.978-45.318c-5.496 13.4-17 47.678-24 45.84-6.01-1.576-9.67-27.634-1.2-53.278 4.263-12.91 13.37-28.335 18.72-34.322 8.613-9.634 18.096-12.785 20.4-8.88 2.937 4.977-10.474 42.24-13.92 50.64zm-114.96 78.152c-15.78 17.214-37.826 23.72-47.28 18.24-10.208-5.92-6.165-31.264 13.2-49.53 11.803-11.134 27.04-21.388 37.148-27.704 2.3-1.384 5.68-3.417 9.787-5.878.68-.388 1.065-.604 1.065-.604l-.015-.025c.793-.476 1.605-.962 2.444-1.463 7.046 26.002.214 48.894-16.35 66.962zm367.21-123.8c-19.145.102-35.727 4.697-49.627 11.55-5.084-10.147-10.23-19.073-11.093-25.71-1.01-7.748-2.178-12.37-.96-21.6 1.22-9.23 6.56-22.3 6.48-23.28-.077-.978-1.197-5.68-12.24-5.76-11.042-.08-20.488 2.123-21.6 5.04s-3.237 9.478-4.56 16.32c-1.935 10.012-22.048 45.722-33.468 64.404-3.736-7.29-6.912-13.72-7.574-18.805-1.008-7.748-2.178-12.37-.96-21.602 1.22-9.23 6.56-22.3 6.48-23.28-.077-.98-1.196-5.68-12.24-5.76-11.042-.08-20.488 2.124-21.6 5.04s-2.3 9.73-4.56 16.32c-2.263 6.592-29 66.16-36 81.6-3.57 7.868-6.674 14.19-8.866 18.505l-.014-.023s-.135.287-.368.77c-1.876 3.675-2.993 5.708-2.993 5.708l.033.076c-1.488 2.698-3.083 5.204-3.873 5.204-.552 0-1.657-7.182.24-17.04 3.98-20.664 13.536-52.89 13.44-54-.05-.57 1.776-6.185-6.24-9.12-7.794-2.852-10.57 1.905-11.28 1.92-.69.015-1.2 1.68-1.2 1.68s8.68-36.238-16.56-36.238c-15.782 0-37.65 17.263-48.42 32.91-6.8 3.71-21.346 11.65-36.78 20.13-5.928 3.256-11.977 6.585-17.713 9.745-.39-.433-.78-.865-1.18-1.293-30.607-32.655-87.188-55.753-84.788-99.653.873-15.96 6.42-57.985 108.72-108.96 83.8-41.76 150.887-30.268 162.48-4.8 16.563 36.382-35.854 104.004-122.88 113.76-33.16 3.716-50.618-9.134-54.96-13.92-4.572-5.04-5.254-5.267-6.96-4.32-2.78 1.54-1.02 5.988 0 8.64 2.598 6.763 13.26 18.755 31.44 24.72 15.99 5.248 54.92 8.13 102-10.08 52.73-20.396 93.903-77.135 81.81-124.56-12.3-48.235-92.277-64.093-167.97-37.2-45.05 16.004-93.816 41.122-128.88 73.92-41.69 38.997-48.34 72.938-45.6 87.12 9.733 50.39 79.188 83.205 107 107.525l-3.83 2.114c-13.944 6.896-66.888 34.603-80.13 63.88-15.022 33.206 2.39 57.03 13.92 60.24 35.718 9.937 72.37-7.94 92.07-37.32 19.693-29.374 17.288-67.622 8.25-85.08-.113-.218-.237-.43-.352-.645 3.6-2.13 7.272-4.298 10.91-6.436 7.098-4.168 14.064-8.056 20.11-11.346-3.382 9.27-5.86 20.38-7.15 36.424-1.513 18.85 6.212 43.215 16.32 52.8 4.452 4.222 9.807 4.32 13.2 4.32 11.764 0 17.132-9.786 23.04-21.36 7.25-14.194 13.68-30.72 13.68-30.72s-8.07 44.64 13.922 44.64c8.013 0 16.074-10.39 19.664-15.688l.015.09s.21-.346.617-1.038c.832-1.27 1.303-2.082 1.303-2.082l.042-.23c3.22-5.593 10.366-18.344 21.08-39.37 13.842-27.167 27.118-61.2 27.118-61.2s1.235 8.32 5.28 22.08c2.38 8.096 7.437 17.045 11.425 25.627-3.21 4.455-5.185 7.014-5.185 7.014l.054.134c-2.565 3.406-5.442 7.082-8.453 10.666-10.925 13.013-23.938 27.87-25.68 32.16-2.053 5.054-1.567 8.77 2.4 11.76 2.896 2.185 8.056 2.523 13.438 2.16 9.818-.66 16.727-3.095 20.134-4.577 5.313-1.88 11.5-4.834 17.308-9.103 10.717-7.88 17.18-19.15 16.56-34.08-.344-8.228-2.968-16.383-6.287-24.082.974-1.397 1.948-2.81 2.927-4.238 16.895-24.698 30-51.84 30-51.84s1.234 8.32 5.28 22.08c2.047 6.965 6.086 14.563 9.72 22.015-15.888 12.907-25.74 27.905-29.16 37.745-6.325 18.197-1.37 26.443 7.92 28.32 4.21.852 10.154-1.078 14.626-2.97 5.563-1.846 12.25-4.92 18.495-9.51 10.717-7.878 21.02-18.91 20.4-33.84-.285-6.798-2.128-13.544-4.63-20.024 13.467-5.61 30.902-8.73 53.11-6.135 47.64 5.564 56.984 35.31 55.2 47.76-1.788 12.45-11.78 19.294-15.122 21.36-3.34 2.066-4.36 2.783-4.08 4.32.407 2.234 1.952 2.148 4.8 1.668 3.922-.662 25.017-10.127 25.92-33.107 1.15-29.176-26.802-61.223-76.316-60.96z"/></svg>