<svg xmlns="http://www.w3.org/2000/svg" viewBox="0 0 294.1 256.3">
  <title>HTML5 Offline Storage Logo</title>
  <path fill="#231F20" d="M294.1,79.0H246.3C226.7,31.9,180.0,0,128.1,0C57.5,0,0,57.4,0,128.1 C0,198.8,57.5,256.3,128.1,256.3c51.9,0,98.5-31.8,118.2-79.0h47.7V79.0z M256.1,139.2H128.1 c-6.1,0-11.1-4.9-11.1-11.1c0-6.1,4.9-11.1,11.1-11.1h127.9V139.2z M128.1,218.3 c-49.7,0-90.1-40.4-90.1-90.1c0-49.7,40.4-90.1,90.1-90.1c30.8,0,59.1,16.0,75.5,41.0h-75.5 c-27.0,0-49.1,22.0-49.1,49.1c0,27.0,22.0,49.1,49.1,49.1h75.5 C187.3,202.3,159.0,218.3,128.1,218.3z"/>
</svg>
